<svg 
          width="14" 
          height="12" fill="none" 
          xmlns="http://www.w3.org/2000/svg">
          <path d="M 7.594671633229363 0.27471946069567005 L 4.12317966962203 3.704394805175105 C 3.89132911845904 3.933452542181258 3.7597385317546066 4.249181072145171 3.7597385317546066 4.577290778909685 L 3.7597385317546066 10.761850055823734 C 3.7597385317546066 11.442832534008867 4.323699194915376 12 5.0129845894139144 12 L 10.652592028269142 12 C 11.153890505149368 12 11.605059650083051 11.70284406850445 11.8055790184116 11.250919305105006 L 13.848369493239213 6.539758220002045 C 14.374732871539907 5.313989785933367 13.466130430495117 3.952025007326828 12.118890801908938 3.952025007326828 L 8.578469585783095 3.952025007326828 L 9.173761902672702 1.116661503618025 C 9.23642421228273 0.8071240175739588 9.142430540449919 0.4913957320351683 8.916846225853817 0.2685287278623426 C 8.54713862718408 -0.09053475417113693 7.958112995332213 -0.09053475417113693 7.594671633229363 0.27471946069567005 Z M 1.2532461473534786 12 C 1.9425315418520175 12 2.5064922947069572 11.442832534008867 2.5064922947069572 10.761850055823734 L 2.5064922947069572 5.809249568063775 C 2.5064922947069572 5.128267089878643 1.9425315418520175 4.57109997941496 1.2532461473534786 4.57109997941496 C 0.5639607528549397 4.57109997941496 0 5.128267089878643 0 5.809249568063775 L 0 10.761850055823734 C 0 11.442832534008867 0.5639607528549397 12 1.2532461473534786 12 Z" fill="rgb(207.00000286102295,207.00000286102295,207.00000286102295)"/>
        </svg>