<svg 
          width="30.48874855041504" 
          height="4.168919086456299" fill="none" 
          xmlns="http://www.w3.org/2000/svg">
          <path d="M 3.9431433760282513 4.168919086456299 L 3.9431433760282513 3.2579385934039995 C 3.915361474271787 3.0844185001988547 3.809790447272795 2.7113507073544594 3.609760748665787 2.6072386499412565 C 3.4097310500587787 2.5031265925280537 3.2763777860271746 2.4770986135650026 3.2347049352551234 2.4770986135650026 L 0.19258682144480177 2.4770986135650026 C 0.08145921441894442 2.4915586216425387 -0.09912311905839477 2.4597466623590036 0.06756828402981019 2.2168185408124956 C 0.2759325453406475 1.913158366527624 0.40095114236028756 1.6094981028358057 0.7760068067593298 1.2624579164255163 C 1.151062471158372 0.9154177300152269 1.2344080981966639 0.7852776042320264 1.6928094492386465 0.5683774840003061 C 2.151210800280629 0.35147736376858574 2.526266554086644 0.13457726216331256 3.068013621573891 0.04781721556074017 C 3.5014112398008996 -0.021590820231201943 4.028375728610295 -0.010024966241415051 4.1672852262167455 0.04781506606872968 L 4.875723666989873 0.17352109158271634 L 5.542488921714802 0.4338012239398546 L 6.209254653276918 0.867601494205611 L 6.776897377539357 1.349217106211516 L 7.235298609372042 1.8263973588003746 L 7.4436631091014736 2.0432975386367263 L 30.488748550415043 1.349217106211516 L 30.488748550415043 4.168919086456299 L 3.9431433760282513 4.168919086456299 Z" fill="rgb(255,255,255)"/>
        </svg>