<svg 
          width="30.48874855041504" 
          height="4.168919086456299" fill="none" 
          xmlns="http://www.w3.org/2000/svg">
          <path d="M 3.9431433301055088 4.168919086456299 L 3.9431433301055088 3.257938389919256 C 3.9153614295179313 3.0844182572455336 3.809790219207835 2.7113503070974607 3.6097605329901614 2.607238223356185 C 3.409730846772488 2.503126139614909 3.2763777358748145 2.477098123850893 3.234704886235396 2.477098123850893 L 0.19258682281552542 2.477098123850893 C 0.08145922046521578 2.4915581353379785 -0.09912311472482188 2.4597461064464783 0.06756828383285177 2.216817924840309 C 0.27593253202994383 1.9131576926612948 0.4009511107549439 1.6094974604822807 0.7760067575097096 1.2624571951348358 C 1.1510624042644753 0.9154169297873909 1.234408103543312 0.7852767889116756 1.6928094495769146 0.5683766230695226 C 2.1512107956105173 0.3514764572273696 2.5262664423652827 0.1345762913852166 3.0680134876777223 0.047816225048355365 C 3.501411108030743 -0.021591829055394196 4.028375468455641 -0.010025972162007256 4.1672849639418414 0.04781407378633453 L 4.875723407811954 0.17352013267372243 L 5.5424890020426485 0.4338003316843061 L 6.209254596273343 0.8676006633686122 L 6.776897105585961 1.3492164340632276 L 7.235298451619563 1.8263967989159642 L 7.443662699816655 2.043296964758117 L 30.48874855041504 1.3492164340632276 L 30.48874855041504 4.168919086456299 L 3.9431433301055088 4.168919086456299 Z" fill="rgb(255,255,255)"/>
        </svg>